<svg width="13" height="10" viewBox="0 0 13 10" fill="none" xmlns="http://www.w3.org/2000/svg">
<path fill-rule="evenodd" clip-rule="evenodd" d="M0 1C0 0.447715 0.447715 0 1 0H12C12.5523 0 13 0.447715 13 1V9C13 9.55228 12.5523 10 12 10H1C0.447715 10 0 9.55229 0 9V1ZM1.994 4.734H1.438L1.346 5H1.052L1.554 3.602H1.88L2.382 5H2.086L1.994 4.734ZM1.918 4.51L1.716 3.926L1.514 4.51H1.918ZM4.09164 3.604V5H3.81164V4.092L3.43764 5H3.22564L2.84964 4.092V5H2.56964V3.604H2.88764L3.33164 4.642L3.77564 3.604H4.09164ZM4.64847 3.83V4.18H5.11847V4.402H4.64847V4.772H5.17847V5H4.36847V3.602H5.17847V3.83H4.64847ZM6.15292 5L5.84492 4.456H5.71292V5H5.43292V3.604H5.95692C6.06492 3.604 6.15692 3.62333 6.23292 3.662C6.30892 3.69933 6.36559 3.75067 6.40292 3.816C6.44159 3.88 6.46092 3.952 6.46092 4.032C6.46092 4.124 6.43426 4.20733 6.38092 4.282C6.32759 4.35533 6.24826 4.406 6.14292 4.434L6.47692 5H6.15292ZM5.71292 4.246H5.94692C6.02292 4.246 6.07959 4.228 6.11692 4.192C6.15426 4.15467 6.17292 4.10333 6.17292 4.038C6.17292 3.974 6.15426 3.92467 6.11692 3.89C6.07959 3.854 6.02292 3.836 5.94692 3.836H5.71292V4.246ZM6.99417 3.604V5H6.71417V3.604H6.99417ZM7.20281 4.3C7.20281 4.16267 7.23348 4.04 7.29481 3.932C7.35748 3.82267 7.44215 3.738 7.54881 3.678C7.65681 3.61667 7.77748 3.586 7.91081 3.586C8.06681 3.586 8.20348 3.626 8.32081 3.706C8.43815 3.786 8.52015 3.89667 8.56681 4.038H8.24481C8.21281 3.97133 8.16748 3.92133 8.10881 3.888C8.05148 3.85467 7.98481 3.838 7.90881 3.838C7.82748 3.838 7.75481 3.85733 7.69081 3.896C7.62815 3.93333 7.57881 3.98667 7.54281 4.056C7.50815 4.12533 7.49081 4.20667 7.49081 4.3C7.49081 4.392 7.50815 4.47333 7.54281 4.544C7.57881 4.61333 7.62815 4.66733 7.69081 4.706C7.75481 4.74333 7.82748 4.762 7.90881 4.762C7.98481 4.762 8.05148 4.74533 8.10881 4.712C8.16748 4.67733 8.21281 4.62667 8.24481 4.56H8.56681C8.52015 4.70267 8.43815 4.814 8.32081 4.894C8.20481 4.97267 8.06815 5.012 7.91081 5.012C7.77748 5.012 7.65681 4.982 7.54881 4.922C7.44215 4.86067 7.35748 4.776 7.29481 4.668C7.23348 4.56 7.20281 4.43733 7.20281 4.3ZM9.10597 4.734L9.01397 5H8.71997L9.22197 3.602H9.54797L10.05 5H9.75397L9.66197 4.734H9.10597ZM9.58597 4.51L9.38397 3.926L9.18197 4.51H9.58597ZM11.4316 5H11.1516L10.5176 4.042V5H10.2376V3.602H10.5176L11.1516 4.562V3.602H11.4316V5ZM4.418 6.18V5.83H4.948V5.602H4.138V7H4.948V6.772H4.418V6.402H4.888V6.18H4.418ZM5.73645 6.53L6.03845 7H6.36045L5.91445 6.306L6.35245 5.604H6.03645L5.76445 6.072L5.46245 5.604H5.14045L5.58645 6.296L5.14645 7H5.46245L5.73645 6.53ZM7.53755 6.246C7.57355 6.18067 7.59155 6.11067 7.59155 6.036C7.59155 5.95333 7.57221 5.87933 7.53355 5.814C7.49621 5.74867 7.43955 5.69733 7.36355 5.66C7.28755 5.62267 7.19555 5.604 7.08755 5.604H6.57355V7H6.85355V6.464H7.08755C7.20221 6.464 7.29688 6.444 7.37155 6.404C7.44755 6.364 7.50288 6.31133 7.53755 6.246ZM7.24755 6.186C7.21021 6.22067 7.15288 6.238 7.07555 6.238H6.85355V5.832H7.07555C7.22755 5.832 7.30355 5.9 7.30355 6.036C7.30355 6.1 7.28488 6.15 7.24755 6.186ZM8.20234 6.456L8.51034 7H8.83434L8.50034 6.434C8.60568 6.406 8.68501 6.35533 8.73834 6.282C8.79168 6.20733 8.81834 6.124 8.81834 6.032C8.81834 5.952 8.79901 5.88 8.76034 5.816C8.72301 5.75067 8.66634 5.69933 8.59034 5.662C8.51434 5.62333 8.42234 5.604 8.31434 5.604H7.79034V7H8.07034V6.456H8.20234ZM8.30434 6.246H8.07034V5.836H8.30434C8.38034 5.836 8.43701 5.854 8.47434 5.89C8.51168 5.92467 8.53034 5.974 8.53034 6.038C8.53034 6.10333 8.51168 6.15467 8.47434 6.192C8.43701 6.228 8.38034 6.246 8.30434 6.246ZM9.35159 6.18V5.83H9.88159V5.602H9.07159V7H9.88159V6.772H9.35159V6.402H9.82159V6.18H9.35159ZM10.354 6.964C10.4327 6.99733 10.5207 7.014 10.618 7.014C10.7207 7.014 10.8094 6.99533 10.884 6.958C10.9587 6.91933 11.0154 6.868 11.054 6.804C11.0927 6.74 11.112 6.67067 11.112 6.596C11.112 6.50933 11.0914 6.43933 11.05 6.386C11.0087 6.33267 10.9594 6.29267 10.902 6.266C10.8447 6.23933 10.7707 6.21267 10.68 6.186C10.6134 6.166 10.5614 6.14867 10.524 6.134C10.488 6.118 10.4574 6.098 10.432 6.074C10.408 6.04867 10.396 6.01733 10.396 5.98C10.396 5.92667 10.412 5.886 10.444 5.858C10.4774 5.83 10.5214 5.816 10.576 5.816C10.6387 5.816 10.6887 5.832 10.726 5.864C10.7647 5.89467 10.7854 5.934 10.788 5.982H11.096C11.0867 5.85667 11.0367 5.75933 10.946 5.69C10.8567 5.61933 10.74 5.584 10.596 5.584C10.5 5.584 10.4147 5.60067 10.34 5.634C10.2654 5.666 10.2074 5.71267 10.166 5.774C10.1247 5.83533 10.104 5.90733 10.104 5.99C10.104 6.078 10.124 6.14867 10.164 6.202C10.2054 6.254 10.254 6.29333 10.31 6.32C10.3674 6.34533 10.4414 6.37133 10.532 6.398C10.5987 6.41667 10.6507 6.434 10.688 6.45C10.7267 6.46467 10.7587 6.48533 10.784 6.512C10.8094 6.53867 10.822 6.57267 10.822 6.614C10.822 6.66467 10.8034 6.706 10.766 6.738C10.7287 6.76867 10.6774 6.784 10.612 6.784C10.548 6.784 10.4974 6.76733 10.46 6.734C10.424 6.70067 10.404 6.65533 10.4 6.598H10.1C10.1014 6.68333 10.1247 6.75733 10.17 6.82C10.2154 6.88267 10.2767 6.93067 10.354 6.964ZM11.5728 6.964C11.6515 6.99733 11.7395 7.014 11.8368 7.014C11.9395 7.014 12.0281 6.99533 12.1028 6.958C12.1775 6.91933 12.2341 6.868 12.2728 6.804C12.3115 6.74 12.3308 6.67067 12.3308 6.596C12.3308 6.50933 12.3101 6.43933 12.2688 6.386C12.2275 6.33267 12.1781 6.29267 12.1208 6.266C12.0635 6.23933 11.9895 6.21267 11.8988 6.186C11.8321 6.166 11.7801 6.14867 11.7428 6.134C11.7068 6.118 11.6761 6.098 11.6508 6.074C11.6268 6.04867 11.6148 6.01733 11.6148 5.98C11.6148 5.92667 11.6308 5.886 11.6628 5.858C11.6961 5.83 11.7401 5.816 11.7948 5.816C11.8575 5.816 11.9075 5.832 11.9448 5.864C11.9835 5.89467 12.0041 5.934 12.0068 5.982H12.3148C12.3055 5.85667 12.2555 5.75933 12.1648 5.69C12.0755 5.61933 11.9588 5.584 11.8148 5.584C11.7188 5.584 11.6335 5.60067 11.5588 5.634C11.4841 5.666 11.4261 5.71267 11.3848 5.774C11.3435 5.83533 11.3228 5.90733 11.3228 5.99C11.3228 6.078 11.3428 6.14867 11.3828 6.202C11.4241 6.254 11.4728 6.29333 11.5288 6.32C11.5861 6.34533 11.6601 6.37133 11.7508 6.398C11.8175 6.41667 11.8695 6.434 11.9068 6.45C11.9455 6.46467 11.9775 6.48533 12.0028 6.512C12.0281 6.53867 12.0408 6.57267 12.0408 6.614C12.0408 6.66467 12.0221 6.706 11.9848 6.738C11.9475 6.76867 11.8961 6.784 11.8308 6.784C11.7668 6.784 11.7161 6.76733 11.6788 6.734C11.6428 6.70067 11.6228 6.65533 11.6188 6.598H11.3188C11.3201 6.68333 11.3435 6.75733 11.3888 6.82C11.4341 6.88267 11.4955 6.93067 11.5728 6.964Z" fill="#495057"/>
</svg>
