<svg width="14" height="12" viewBox="0 0 14 12" fill="none" xmlns="http://www.w3.org/2000/svg">
<g clip-path="url(#clip0_147_6859)">
<path d="M11.1527 9.32031C11.1527 9.47378 11.0489 9.58437 10.8999 9.58437C10.7464 9.58437 10.6471 9.46701 10.6471 9.32031C10.6471 9.1736 10.7464 9.05624 10.8999 9.05624C11.0489 9.05624 11.1527 9.1736 11.1527 9.32031ZM4.13811 9.05624C3.97786 9.05624 3.88533 9.1736 3.88533 9.32031C3.88533 9.46701 3.97786 9.58437 4.13811 9.58437C4.28481 9.58437 4.38411 9.47378 4.38411 9.32031C4.38186 9.1736 4.28481 9.05624 4.13811 9.05624ZM6.79002 9.04947C6.66814 9.04947 6.59366 9.12847 6.57561 9.24583H7.00668C6.98637 9.11718 6.90738 9.04947 6.79002 9.04947ZM9.223 9.05624C9.06953 9.05624 8.977 9.1736 8.977 9.32031C8.977 9.46701 9.06953 9.58437 9.223 9.58437C9.37648 9.58437 9.47578 9.47378 9.47578 9.32031C9.47578 9.1736 9.37648 9.05624 9.223 9.05624ZM11.6131 9.64531C11.6131 9.65208 11.6199 9.65659 11.6199 9.67013C11.6199 9.6769 11.6131 9.68142 11.6131 9.69496C11.6063 9.70173 11.6063 9.70624 11.6018 9.71302C11.5951 9.71979 11.5905 9.7243 11.577 9.7243C11.5702 9.73107 11.5657 9.73107 11.5522 9.73107C11.5454 9.73107 11.5409 9.73107 11.5273 9.7243C11.5206 9.7243 11.5161 9.71753 11.5093 9.71302C11.5025 9.70624 11.498 9.70173 11.498 9.69496C11.4912 9.68367 11.4912 9.6769 11.4912 9.67013C11.4912 9.65885 11.4912 9.65208 11.498 9.64531C11.498 9.63402 11.5048 9.62725 11.5093 9.62048C11.5161 9.61371 11.5206 9.61371 11.5273 9.6092C11.5386 9.60242 11.5454 9.60242 11.5522 9.60242C11.5635 9.60242 11.5702 9.60242 11.577 9.6092C11.5883 9.61597 11.5951 9.61597 11.6018 9.62048C11.6086 9.62499 11.6063 9.63402 11.6131 9.64531ZM11.5635 9.6769C11.5747 9.6769 11.5747 9.67013 11.5815 9.67013C11.5883 9.66336 11.5883 9.65885 11.5883 9.65208C11.5883 9.64531 11.5883 9.64079 11.5815 9.63402C11.5747 9.63402 11.5702 9.62725 11.5567 9.62725H11.5206V9.70624H11.5386V9.67465H11.5454L11.5702 9.70624H11.5883L11.5635 9.6769ZM13.2539 1.88819V9.83263C13.2539 10.4307 12.7687 10.916 12.1706 10.916H1.33724C0.739149 10.916 0.253906 10.4307 0.253906 9.83263V1.88819C0.253906 1.2901 0.739149 0.804855 1.33724 0.804855H12.1706C12.7687 0.804855 13.2539 1.2901 13.2539 1.88819ZM1.69835 5.03888C1.69835 6.76545 3.09991 8.16475 4.82422 8.16475C5.43811 8.16475 6.04071 7.97968 6.55078 7.6434C4.90547 6.30503 4.91675 3.77951 6.55078 2.44114C6.04071 2.1026 5.43811 1.91979 4.82422 1.91979C3.09991 1.91753 1.69835 3.31909 1.69835 5.03888ZM6.75391 7.49444C8.34505 6.25312 8.33828 3.83367 6.75391 2.58558C5.16953 3.83367 5.16276 6.25538 6.75391 7.49444ZM3.54227 9.21649C3.54227 9.02013 3.41363 8.89149 3.2105 8.88472C3.10668 8.88472 2.99609 8.91631 2.92161 9.03142C2.86745 8.93888 2.77491 8.88472 2.64627 8.88472C2.5605 8.88472 2.47474 8.91631 2.40703 9.00659V8.90729H2.22196V9.73558H2.40703C2.40703 9.30902 2.35061 9.05399 2.61016 9.05399C2.84036 9.05399 2.79523 9.2842 2.79523 9.73558H2.97352C2.97352 9.32256 2.9171 9.05399 3.17665 9.05399C3.40686 9.05399 3.36172 9.27968 3.36172 9.73558H3.54679V9.21649H3.54227ZM4.55564 8.90729H4.37734V9.00659C4.31641 8.93211 4.23064 8.88472 4.11328 8.88472C3.88082 8.88472 3.70252 9.06979 3.70252 9.32031C3.70252 9.57308 3.88082 9.7559 4.11328 9.7559C4.23064 9.7559 4.31641 9.71302 4.37734 9.63402V9.73784H4.55564V8.90729ZM5.46971 9.48506C5.46971 9.14652 4.95286 9.29999 4.95286 9.14201C4.95286 9.01336 5.22144 9.03367 5.3704 9.11718L5.44488 8.97048C5.23273 8.83281 4.76328 8.83506 4.76328 9.15555C4.76328 9.47829 5.28012 9.34288 5.28012 9.49409C5.28012 9.63628 4.97543 9.62499 4.81293 9.51215L4.73394 9.65433C4.98672 9.82586 5.46971 9.78975 5.46971 9.48506ZM6.26866 9.69496L6.21901 9.54149C6.13325 9.58888 5.94366 9.64079 5.94366 9.44895V9.0743H6.23932V8.90729H5.94366V8.65451H5.75859V8.90729H5.58707V9.07204H5.75859V9.44895C5.75859 9.84617 6.14904 9.77395 6.26866 9.69496ZM6.56884 9.39253H7.1895C7.1895 9.0269 7.02248 8.88246 6.79679 8.88246C6.55755 8.88246 6.38602 9.06076 6.38602 9.31805C6.38602 9.78072 6.89609 9.85746 7.14887 9.63854L7.06311 9.50312C6.88707 9.64756 6.62075 9.63402 6.56884 9.39253ZM7.90269 8.90729C7.79887 8.86215 7.64089 8.86666 7.55964 9.00659V8.90729H7.37457V9.73558H7.55964V9.2684C7.55964 9.00659 7.77404 9.04045 7.84852 9.07881L7.90269 8.90729ZM8.14193 9.32031C8.14193 9.06301 8.40373 8.97951 8.60911 9.13072L8.69488 8.98402C8.43307 8.77864 7.95686 8.89149 7.95686 9.32256C7.95686 9.76944 8.46241 9.85972 8.69488 9.66111L8.60911 9.5144C8.40148 9.66111 8.14193 9.57308 8.14193 9.32031ZM9.64731 8.90729H9.46224V9.00659C9.27491 8.75833 8.78741 8.89826 8.78741 9.32031C8.78741 9.75364 9.29297 9.87777 9.46224 9.63402V9.73784H9.64731V8.90729ZM10.4079 8.90729C10.3537 8.8802 10.1596 8.84183 10.0648 9.00659V8.90729H9.88654V9.73558H10.0648V9.2684C10.0648 9.02013 10.268 9.03593 10.3537 9.07881L10.4079 8.90729ZM11.3174 8.571H11.1391V9.00659C10.9541 8.76058 10.4643 8.89149 10.4643 9.32031C10.4643 9.75815 10.9721 9.87551 11.1391 9.63402V9.73784H11.3174V8.571ZM11.489 6.87604V6.97986H11.507V6.87604H11.5499V6.85798H11.4461V6.87604H11.489ZM11.6379 9.67013C11.6379 9.65885 11.6379 9.64531 11.6312 9.63402C11.6244 9.62725 11.6199 9.61597 11.6131 9.6092C11.6063 9.60242 11.5951 9.59791 11.5883 9.59114C11.577 9.59114 11.5635 9.58437 11.5522 9.58437C11.5454 9.58437 11.5341 9.59114 11.5206 9.59114C11.5093 9.59791 11.5025 9.60242 11.4957 9.6092C11.4845 9.61597 11.4777 9.62725 11.4777 9.63402C11.4709 9.64531 11.4709 9.65885 11.4709 9.67013C11.4709 9.6769 11.4709 9.68819 11.4777 9.70173C11.4777 9.7085 11.4845 9.71979 11.4957 9.72656C11.5025 9.73333 11.507 9.73784 11.5206 9.74461C11.5319 9.75138 11.5454 9.75138 11.5522 9.75138C11.5635 9.75138 11.577 9.75138 11.5883 9.74461C11.5951 9.73784 11.6063 9.73333 11.6131 9.72656C11.6199 9.71979 11.6244 9.7085 11.6312 9.70173C11.6379 9.68819 11.6379 9.6769 11.6379 9.67013ZM11.7102 6.85572H11.6786L11.6424 6.93472L11.6063 6.85572H11.5747V6.9776H11.5928V6.88506L11.6289 6.96406H11.6537L11.6853 6.88506V6.9776H11.7102V6.85572ZM11.8095 5.03888C11.8095 3.31909 10.4079 1.91753 8.68359 1.91753C8.0697 1.91753 7.4671 2.1026 6.95703 2.43888C8.58429 3.77725 8.60911 6.30954 6.95703 7.64114C7.4671 7.97968 8.07422 8.16249 8.68359 8.16249C10.4079 8.16475 11.8095 6.76545 11.8095 5.03888Z" fill="#495057"/>
</g>
<defs>
<clipPath id="clip0_147_6859">
<rect width="13" height="11.5556" fill="white" transform="translate(0.253906 0.0600586)"/>
</clipPath>
</defs>
</svg>
