<svg width="13" height="12" viewBox="0 0 13 12" fill="none" xmlns="http://www.w3.org/2000/svg">
<path d="M10.6099 5.22032C10.6099 5.22032 10.7814 6.0599 10.8198 6.23594H10.066C10.1405 6.03508 10.4271 5.25417 10.4271 5.25417C10.4226 5.26094 10.5016 5.04879 10.5467 4.91789L10.6099 5.22032ZM13 1.80556V9.75001C13 10.3481 12.5148 10.8333 11.9167 10.8333H1.08333C0.485243 10.8333 0 10.3481 0 9.75001V1.80556C0 1.20747 0.485243 0.722229 1.08333 0.722229H11.9167C12.5148 0.722229 13 1.20747 13 1.80556ZM3.44184 7.47501L4.86823 3.97223H3.90903L3.02205 6.36459L2.925 5.87935L2.60903 4.26789C2.55712 4.04445 2.39687 3.98126 2.19826 3.97223H0.738021L0.722222 4.04219C1.07882 4.13247 1.39705 4.26337 1.67465 4.42813L2.48264 7.47501H3.44184ZM5.5724 7.47952L6.14115 3.97223H5.23385L4.66736 7.47952H5.5724ZM8.72986 6.33299C8.73438 5.93351 8.49063 5.62883 7.96927 5.37831C7.65104 5.21806 7.45694 5.10973 7.45694 4.94497C7.46146 4.79601 7.6217 4.64254 7.9783 4.64254C8.27396 4.63577 8.49062 4.70574 8.65312 4.7757L8.73438 4.81407L8.85851 4.05574C8.68021 3.98577 8.39583 3.90678 8.04601 3.90678C7.15 3.90678 6.52031 4.38525 6.5158 5.06685C6.50903 5.57015 6.96719 5.85001 7.31024 6.01928C7.66007 6.19081 7.77969 6.30365 7.77969 6.45487C7.77517 6.68959 7.49531 6.79792 7.23576 6.79792C6.87465 6.79792 6.68056 6.7415 6.3849 6.6106L6.26528 6.55417L6.13889 7.34185C6.35104 7.4389 6.74375 7.52466 7.15 7.52917C8.10243 7.53143 8.72309 7.05973 8.72986 6.33299ZM11.9167 7.47952L11.1854 3.97223H10.4835C10.2668 3.97223 10.1021 4.03542 10.0095 4.26337L8.66215 7.47952H9.61458C9.61458 7.47952 9.77031 7.04619 9.80417 6.95365H10.9688C10.9958 7.07778 11.0771 7.47952 11.0771 7.47952H11.9167Z" fill="#495057"/>
</svg>
